# xmcd CD database file
#
# Track frame offsets:
#	150
#	14885
#	29214
#	44185
#	62644
#	77999
#	96526
#	113974
#	131120
#	156508
#	173435
#	189419
#	199812
#
# Disc length: 2895 seconds
#
# Revision: 1
# Processed by: cddbd v1.5.2PL0 Copyright (c) Steve Scherf et al.
# Submitted via: CDex 1.70beta2
#
DISCID=c90b4d0d
DTITLE=Various Artist - Country Faith Volume 2
DYEAR=2016
DGENRE=Country
TTITLE0=Luke Bryan - Pray About Everything
TTITLE1=Michael Ray - Real Men Love Jesus
TTITLE2=Wade Hayes - What's A Broken Heart For You
TTITLE3=Lee Ann Womack - Stubborn (Psalms 151)
TTITLE4=George Strait - I Saw God Today
TTITLE5=Brad Paisley (f Dolly Parton) - When I Get Where I'm Going
TTITLE6=John Michael Montgomery (f Alison Krauss and Dan Tyminski) - The Little Girl
TTITLE7=Drew Baldridge - Tractors Don't Roll
TTITLE8=Brooks and Dunn - Believe
TTITLE9=Leann Rimes - I Need You
TTITLE10=Phil Vassar - This Is God
TTITLE11=Wynonna - Live With Jesus
TTITLE12=Shenandoah - Hallelujah For The Cross
EXTD=YEAR: 2016
EXTT0=
EXTT1=
EXTT2=
EXTT3=
EXTT4=
EXTT5=
EXTT6=
EXTT7=
EXTT8=
EXTT9=
EXTT10=
EXTT11=
EXTT12=
PLAYORDER=
